<svg width="24" height="24" viewBox="0 0 24 24" fill="none" xmlns="http://www.w3.org/2000/svg">
<path d="M12 21.3333C14.4753 21.3333 16.8493 20.3499 18.5996 18.5996C20.35 16.8492 21.3333 14.4753 21.3333 11.9999C21.3333 9.52457 20.35 7.1506 18.5996 5.40026C16.8493 3.64992 14.4753 2.66659 12 2.66659C9.52463 2.66659 7.15066 3.64992 5.40032 5.40026C3.64998 7.1506 2.66665 9.52457 2.66665 11.9999C2.66665 14.4753 3.64998 16.8492 5.40032 18.5996C7.15066 20.3499 9.52463 21.3333 12 21.3333ZM12 23.6666C5.55648 23.6666 0.333313 18.4434 0.333313 11.9999C0.333313 5.55642 5.55648 0.333252 12 0.333252C18.4435 0.333252 23.6666 5.55642 23.6666 11.9999C23.6666 18.4434 18.4435 23.6666 12 23.6666ZM8.37165 13.3649L5.45731 12.4561C4.82731 12.2636 4.82381 11.8296 5.59848 11.5181L16.9536 7.13142C17.6128 6.86309 17.9861 7.20259 17.7726 8.05309L15.8395 17.1764C15.7041 17.8263 15.3133 17.9814 14.7708 17.6816L11.7946 15.4789L10.4075 16.8183C10.2651 16.9559 10.1496 17.0738 9.93031 17.1029C9.71215 17.1333 9.53248 17.0679 9.40065 16.7063L8.38565 13.3568L8.37165 13.3661V13.3649Z" fill="#1A005C"/>
</svg>
