<svg width="24" height="25" viewBox="0 0 24 25" fill="none" xmlns="http://www.w3.org/2000/svg">
<path d="M18.0971 9.18201C17.6391 9.38333 17.1533 9.51556 16.6559 9.5743C17.1802 9.26275 17.5726 8.77243 17.7599 8.19472C17.2679 8.48566 16.7285 8.68955 16.1663 8.79985C15.7887 8.39836 15.2881 8.13209 14.7425 8.04244C14.1969 7.95279 13.6367 8.04477 13.1491 8.30409C12.6615 8.56341 12.2738 8.97554 12.0462 9.4764C11.8186 9.97726 11.764 10.5388 11.8907 11.0737C10.893 11.024 9.91692 10.7664 9.02589 10.3175C8.13486 9.8687 7.34879 9.23867 6.71871 8.46837C6.49568 8.849 6.37848 9.2817 6.37911 9.72215C6.37911 10.5866 6.82191 11.3503 7.49511 11.7975C7.09672 11.785 6.70709 11.6781 6.35871 11.4857V11.5167C6.35883 12.0924 6.55933 12.6504 6.92622 13.096C7.29311 13.5416 7.8038 13.8475 8.37171 13.9617C8.00188 14.0612 7.6141 14.0759 7.23771 14.0046C7.39783 14.5002 7.70992 14.9336 8.13027 15.2441C8.55062 15.5547 9.05819 15.7268 9.58192 15.7365C9.0614 16.1427 8.46542 16.443 7.82804 16.6202C7.19066 16.7973 6.52439 16.848 5.86731 16.7691C7.01433 17.5021 8.34957 17.8912 9.71332 17.8899C14.3291 17.8899 16.8533 14.0904 16.8533 10.7953C16.8533 10.688 16.8503 10.5795 16.8455 10.4734C17.3368 10.1205 17.7609 9.68341 18.0977 9.1826L18.0971 9.18201Z" fill="#1A005C"/>
<path d="M23 12.897C23 18.9242 18.0811 23.8211 12 23.8211C5.91888 23.8211 1 18.9242 1 12.897C1 6.86976 5.91888 1.9729 12 1.9729C18.0811 1.9729 23 6.86976 23 12.897Z" stroke="#1A005C" stroke-width="2"/>
</svg>
